# xmcd CD database file
#
# Track frame offsets:
#	150
#	13462
#	21625
#	32325
#	45347
#	53160
#	62175
#	67022
#	74412
#	86050
#	98737
#	110250
#	149660
#	160760
#	171975
#	181600
#	193037
#	205717
#	216375
#	226535
#
# Disc length: 3219 seconds
#
# Revision: 1
# Processed by: cddbd v1.5.1PL2 Copyright (c) Steve Scherf et al.
# Submitted via: CDex 1.51
#
DISCID=1d0c9114
DTITLE=Billie Holiday - Pearls of the Past
DYEAR=1994
DGENRE=Jazz
TTITLE0=Billie's Blues
TTITLE1=Miss Brown To You
TTITLE2=Ain't Nobody's Business
TTITLE3=My Man
TTITLE4=Them There Eyes
TTITLE5=Please Don't Talk About Me
TTITLE6=Ghost Of A Chance
TTITLE7=Untitled
TTITLE8=Nice Work If You Can Get It
TTITLE9=God Bless The Child
TTITLE10=I Loves You Porgy
TTITLE11=Finde And Mellow
TTITLE12=What A Little Moonlight Can Do
TTITLE13=Fooling Myself
TTITLE14=Walking Through Heaven With You
TTITLE15=Everything Happens To Me
TTITLE16=Prelude To A Kiss
TTITLE17=Lover Come Back To Me
TTITLE18=Jeepers Creepers
TTITLE19=Lover Man
EXTD=YEAR: 1994
EXTT0=
EXTT1=
EXTT2=
EXTT3=
EXTT4=
EXTT5=
EXTT6=
EXTT7=
EXTT8=
EXTT9=
EXTT10=
EXTT11=
EXTT12=
EXTT13=
EXTT14=
EXTT15=
EXTT16=
EXTT17=
EXTT18=
EXTT19=
PLAYORDER=
